<?xml version="1.0"?>
<svg xmlns="http://www.w3.org/2000/svg" xmlns:xlink="http://www.w3.org/1999/xlink" version="1.1" id="Capa_1" x="0px" y="0px" viewBox="0 0 512 512" style="enable-background:new 0 0 512 512;" xml:space="preserve" width="512px" height="512px"><g><g>
	<g>
		<path d="M105,392h109.992c0.784-2.184,1.382-4.411,2.516-6.504l35.815-59.678l186.255-186.255c3.73-3.73,7.978-6.687,12.422-9.272    V15c0-8.291-6.709-15-15-15h-60c-8.291,0-15,6.709-15,15c0,8.276-6.724,15-15,15s-15-6.724-15-15c0-8.291-6.709-15-15-15h-60    c-8.291,0-15,6.709-15,15c0,8.276-6.724,15-15,15s-15-6.724-15-15c0-8.291-6.709-15-15-15h-62c-8.291,0-15,6.709-15,15    c0,8.276-6.724,15-15,15s-15-6.724-15-15c0-8.291-6.709-15-15-15H15C6.709,0,0,6.709,0,15v482c0,8.291,6.709,15,15,15h422    c8.291,0,15-6.709,15-15V296.858L338.182,410.677l-58.506,35.156c-24.311,13.248-49.598,3.721-61.348-15.996    c-1.49-2.499-2.43-5.175-3.395-7.837H105c-8.291,0-15-6.709-15-15C90,398.709,96.709,392,105,392z M105,122h242    c8.291,0,15,6.709,15,15s-6.709,15-15,15H105c-8.291,0-15-6.709-15-15S96.709,122,105,122z M105,212h212c8.291,0,15,6.709,15,15    s-6.709,15-15,15H105c-8.291,0-15-6.709-15-15S96.709,212,105,212z M105,302h122c8.291,0,15,6.709,15,15c0,8.291-6.709,15-15,15    H105c-8.291,0-15-6.709-15-15C90,308.709,96.709,302,105,302z" data-original="#000000" class="active-path" data-old_color="#000000" fill="#219921"/>
	</g>
</g><g>
	<g>
		<path d="M503.222,160.774c-11.6-11.599-30.634-11.803-42.437,0L437.52,184.04l42.44,42.433l23.262-23.262    C514.926,191.507,514.926,172.479,503.222,160.774z" data-original="#000000" class="active-path" data-old_color="#000000" fill="#d6d633"/>
	</g>
</g><g>
	<g>
		
			<rect x="304.84" y="251.451" transform="matrix(0.7071 -0.7072 0.7072 0.7071 -86.9656 352.9926)" width="155.47" height="60.024" data-original="#000000" class="active-path" data-old_color="#000000" fill="#d6d633"/>
	</g>
</g><g>
	<g>
		<path d="M285.176,336.386l-8.034,8.036l-33.256,55.358c-7.104,13.118,7.216,27.438,20.334,20.334l55.358-33.256l8.035-8.035    L285.176,336.386z" data-original="#000000" class="active-path" data-old_color="#000000" fill="#d6d633"/>
	</g>
</g></g> </svg>
